<?xml version="1.0" encoding="UTF-8" standalone="no"?>
<svg
   xmlns:dc="http://purl.org/dc/elements/1.1/"
   xmlns:cc="http://creativecommons.org/ns#"
   xmlns:rdf="http://www.w3.org/1999/02/22-rdf-syntax-ns#"
   xmlns:svg="http://www.w3.org/2000/svg"
   xmlns="http://www.w3.org/2000/svg"
   xmlns:sodipodi="http://sodipodi.sourceforge.net/DTD/sodipodi-0.dtd"
   xmlns:inkscape="http://www.inkscape.org/namespaces/inkscape"
   viewBox="0 0 500 100"
   version="1.1"
   id="svg4"
   sodipodi:docname="gympass-logo.svg"
   inkscape:version="0.92.2 (5c3e80d, 2017-08-06)">
  <metadata
     id="metadata10">
    <rdf:RDF>
      <cc:Work
         rdf:about="">
        <dc:format>image/svg+xml</dc:format>
        <dc:type
           rdf:resource="http://purl.org/dc/dcmitype/StillImage" />
      </cc:Work>
    </rdf:RDF>
  </metadata>
  <defs
     id="defs8" />
  <sodipodi:namedview
     pagecolor="#ffffff"
     bordercolor="#666666"
     borderopacity="1"
     objecttolerance="10"
     gridtolerance="10"
     guidetolerance="10"
     inkscape:pageopacity="0"
     inkscape:pageshadow="2"
     inkscape:window-width="1600"
     inkscape:window-height="837"
     id="namedview6"
     showgrid="false"
     inkscape:zoom="0.634"
     inkscape:cx="250"
     inkscape:cy="50"
     inkscape:window-x="-8"
     inkscape:window-y="-8"
     inkscape:window-maximized="1"
     inkscape:current-layer="svg4" />
  <path
     fill="#fc695a"
     d="M58.8 27.1l13.5-7.4C67.7 8.2 56.2 1.4 40.8 1.4 15.4 1.4-.3 17.1-.3 40c0 25 20.8 38.8 40.6 38.8 18.2 0 30.1-8.5 35.2-15.6V36.3H36.4v12.4h24.5l-.1 8.5s-7.2 6.9-20.2 6.9c-14 0-22-9.5-22-24.5 0-15.1 8-24.6 21.8-24.6 8.2 0 14.3 4.9 18.4 12.1zm23.5 68.6V83c2.9.5 4.8.6 6.8.6 6 0 10.5-2.1 12.5-6.3l.4-1.5-23.8-49.9h18.9l12 30.6c.9 2.2 1.2 3.5 1.6 5.6h.3c.3-1.8.7-3.1 1.5-5.5L124 25.9h17.7l-22.6 52.3c-5.6 13-13.9 18.2-28.3 18.2-2.2 0-5.7-.2-8.5-.7zm81.4-69.8v10c3.4-7.7 9.6-11.5 18.5-11.5 8.8 0 14.7 3.8 17.7 11.6 4.1-7.7 10.8-11.6 19.6-11.6 12.5 0 19.5 7.8 19.5 21.9v29.6h-17.1V49.4c0-8.2-3.2-12.2-9.6-12.2-6.7 0-10.7 4.6-10.7 12.5v26.2h-17.1V49.4c0-8.2-3.2-12.2-9.6-12.2-6.7 0-10.7 4.7-10.7 12.8v25.9h-17.1v-50h16.6zm84.9 0h16.6v8.4c4.1-6.5 11.6-9.9 20.4-9.9 15 0 24.9 10.4 24.9 26.3 0 16.1-10.4 26.7-25.6 26.7-8.4 0-15-3.2-19.2-8.5v26.5h-17.1V25.9zm44.2 24.8c0-9.4-5-14.8-13.6-14.8-8.4 0-13.9 5.1-13.9 14V52c0 8.4 5.5 13.9 13.8 13.9 8.5 0 13.7-5.8 13.7-15.2zm24.3 11.5c0-4.6 1.9-8.4 5.4-10.9 3.5-2.4 8.5-3.9 17.4-4.8l18.6-1.7v-1.5c0-5.6-3.8-8.3-10.6-8.3-6.9 0-11 2.7-11.7 7.7h-17.5c1.3-11.4 12.4-18.3 29.3-18.3 19 0 27.7 6.9 27.7 21.4v15.5c0 6.4.4 11.1 1.2 14.6H360c-.4-2.4-.7-5.5-.7-8.5-3.3 6.3-11.1 10-21.7 10-12.6 0-20.5-5.8-20.5-15.2zm41.8-6.1v-3.2l-13.8 1.4c-7.6.9-10.5 2.9-10.5 6.8 0 3.7 3.6 5.9 9.5 5.9 8.8 0 14.8-4.3 14.8-10.9zm22.8 9.4l9.2-7.8c4.7 5.6 11.8 8.6 22.2 8.6 7 0 10.1-1.5 10.1-4.6 0-2.8-1.5-3.9-7.2-4.5l-13.3-1.3c-12.2-1.5-18-6.6-18-15.4 0-10.2 9.4-16.1 26.2-16.1 12.1 0 21.9 3.4 27.5 9.5l-8 8.2c-5.1-4.6-11.4-6.8-20.4-6.8-6.6 0-9.7 1.3-9.7 4.2 0 2.4 1.8 3.6 6.4 4.1l14.7 1.5c12.3 1.4 17.2 6.5 17.2 15.3 0 10.6-8.9 17-26.3 17-13.9 0-24.4-4.1-30.6-11.9zm61.4 0l9.2-7.8c4.7 5.6 11.8 8.6 22.2 8.6 7 0 10.1-1.5 10.1-4.6 0-2.8-1.5-3.9-7.2-4.5l-13.3-1.3c-12.2-1.5-18-6.6-18-15.4 0-10.2 9.4-16.1 26.2-16.1 12.1 0 21.9 3.4 27.5 9.5l-8 8.2c-5.1-4.6-11.4-6.8-20.4-6.8-6.6 0-9.7 1.3-9.7 4.2 0 2.4 1.8 3.6 6.4 4.1l14.7 1.5c12.3 1.4 17.2 6.5 17.2 15.3 0 10.6-8.9 17-26.3 17-13.9 0-24.4-4.1-30.6-11.9z"
     id="path2"
     inkscape:export-filename="G:\Users\suitedoalex\sites\gympass-logo-7.png"
     inkscape:export-xdpi="9.594244"
     inkscape:export-ydpi="9.594244" />
</svg>
