<svg width="421" height="368" viewBox="0 0 421 368" fill="none" xmlns="http://www.w3.org/2000/svg">
<path d="M250.75 289.99C250.632 291.608 250.033 292.882 248.952 293.812C247.878 294.742 246.459 295.207 244.696 295.207C242.768 295.207 241.249 294.559 240.141 293.265C239.039 291.963 238.488 290.179 238.488 287.914V286.994C238.488 285.548 238.743 284.274 239.252 283.172C239.762 282.07 240.488 281.227 241.432 280.641C242.382 280.049 243.484 279.753 244.737 279.753C246.473 279.753 247.871 280.218 248.931 281.147C249.992 282.077 250.605 283.382 250.77 285.062H247.671C247.595 284.091 247.323 283.389 246.855 282.955C246.394 282.514 245.688 282.294 244.737 282.294C243.704 282.294 242.93 282.666 242.413 283.41C241.904 284.147 241.642 285.293 241.628 286.85V287.986C241.628 289.611 241.873 290.799 242.362 291.55C242.857 292.3 243.636 292.676 244.696 292.676C245.653 292.676 246.366 292.459 246.834 292.025C247.31 291.584 247.582 290.906 247.651 289.99H250.75ZM261.834 288.482H255.884V292.51H262.867V295H252.785V279.959H262.846V282.47H255.884V286.054H261.834V288.482ZM276.916 295H273.817L267.784 285.104V295H264.685V279.959H267.784L273.827 289.876V279.959H276.916V295ZM290.634 282.47H286.027V295H282.928V282.47H278.383V279.959H290.634V282.47ZM297.979 289.494H295.51V295H292.411V279.959H297.999C299.776 279.959 301.147 280.355 302.111 281.147C303.075 281.939 303.557 283.058 303.557 284.505C303.557 285.531 303.333 286.388 302.886 287.077C302.445 287.759 301.773 288.303 300.871 288.709L304.125 294.855V295H300.799L297.979 289.494ZM295.51 286.984H298.01C298.788 286.984 299.39 286.788 299.817 286.395C300.244 285.996 300.458 285.448 300.458 284.753C300.458 284.043 300.255 283.485 299.848 283.079C299.449 282.673 298.833 282.47 297.999 282.47H295.51V286.984ZM318.277 287.821C318.277 289.301 318.016 290.599 317.492 291.715C316.969 292.831 316.218 293.692 315.24 294.298C314.269 294.904 313.154 295.207 311.893 295.207C310.647 295.207 309.535 294.907 308.557 294.308C307.579 293.709 306.821 292.855 306.284 291.746C305.747 290.63 305.475 289.349 305.468 287.903V287.159C305.468 285.679 305.733 284.377 306.263 283.255C306.801 282.125 307.555 281.261 308.526 280.662C309.504 280.056 310.619 279.753 311.873 279.753C313.126 279.753 314.238 280.056 315.209 280.662C316.187 281.261 316.941 282.125 317.472 283.255C318.009 284.377 318.277 285.675 318.277 287.149V287.821ZM315.137 287.139C315.137 285.562 314.855 284.363 314.29 283.544C313.725 282.724 312.919 282.315 311.873 282.315C310.833 282.315 310.03 282.721 309.466 283.534C308.901 284.339 308.615 285.524 308.608 287.087V287.821C308.608 289.356 308.891 290.548 309.455 291.395C310.02 292.242 310.833 292.665 311.893 292.665C312.933 292.665 313.732 292.259 314.29 291.446C314.848 290.627 315.13 289.436 315.137 287.872V287.139ZM325.798 295V279.959H330.426C331.748 279.959 332.929 280.259 333.969 280.858C335.016 281.45 335.832 282.297 336.417 283.399C337.002 284.494 337.295 285.741 337.295 287.139V287.831C337.295 289.229 337.006 290.472 336.427 291.56C335.856 292.648 335.047 293.492 334 294.091C332.953 294.69 331.772 294.993 330.457 295H325.798ZM328.897 282.47V292.51H330.395C331.607 292.51 332.533 292.114 333.173 291.322C333.814 290.531 334.141 289.398 334.155 287.924V287.128C334.155 285.6 333.838 284.443 333.204 283.658C332.571 282.866 331.644 282.47 330.426 282.47H328.897ZM348.606 288.482H342.656V292.51H349.639V295H339.557V279.959H349.619V282.47H342.656V286.054H348.606V288.482ZM250.409 315.228C250.223 316.818 249.634 318.048 248.642 318.915C247.657 319.776 246.346 320.207 244.706 320.207C242.93 320.207 241.504 319.57 240.43 318.296C239.362 317.021 238.829 315.317 238.829 313.182V311.736C238.829 310.338 239.077 309.109 239.572 308.048C240.075 306.988 240.784 306.175 241.7 305.61C242.616 305.039 243.677 304.753 244.882 304.753C246.48 304.753 247.761 305.2 248.725 306.096C249.689 306.984 250.25 308.217 250.409 309.794H248.415C248.243 308.596 247.867 307.728 247.289 307.191C246.717 306.654 245.915 306.385 244.882 306.385C243.615 306.385 242.62 306.853 241.897 307.79C241.18 308.726 240.822 310.059 240.822 311.788V313.244C240.822 314.876 241.163 316.174 241.845 317.139C242.527 318.103 243.481 318.585 244.706 318.585C245.808 318.585 246.652 318.337 247.237 317.841C247.83 317.338 248.222 316.467 248.415 315.228H250.409ZM264.695 312.965C264.695 314.439 264.447 315.727 263.951 316.829C263.456 317.924 262.753 318.76 261.844 319.339C260.935 319.917 259.874 320.207 258.662 320.207C257.478 320.207 256.428 319.917 255.512 319.339C254.596 318.754 253.883 317.924 253.373 316.849C252.871 315.768 252.612 314.518 252.599 313.1V312.015C252.599 310.569 252.85 309.291 253.353 308.182C253.855 307.074 254.565 306.227 255.481 305.641C256.404 305.049 257.457 304.753 258.642 304.753C259.847 304.753 260.907 305.045 261.823 305.631C262.746 306.209 263.456 307.053 263.951 308.162C264.447 309.264 264.695 310.548 264.695 312.015V312.965ZM262.722 311.994C262.722 310.211 262.364 308.844 261.648 307.893C260.932 306.936 259.93 306.457 258.642 306.457C257.388 306.457 256.4 306.936 255.677 307.893C254.961 308.844 254.592 310.166 254.572 311.86V312.965C254.572 314.694 254.933 316.054 255.656 317.046C256.386 318.03 257.388 318.523 258.662 318.523C259.943 318.523 260.935 318.058 261.637 317.128C262.34 316.192 262.701 314.852 262.722 313.11V311.994ZM270.232 304.959L275.149 317.232L280.066 304.959H282.639V320H280.655V314.143L280.841 307.821L275.903 320H274.385L269.457 307.852L269.654 314.143V320H267.67V304.959H270.232ZM288.124 314.112V320H286.14V304.959H291.688C293.334 304.959 294.621 305.379 295.551 306.22C296.488 307.06 296.956 308.172 296.956 309.556C296.956 311.016 296.498 312.142 295.582 312.934C294.673 313.719 293.368 314.112 291.667 314.112H288.124ZM288.124 312.49H291.688C292.748 312.49 293.561 312.242 294.126 311.746C294.69 311.244 294.973 310.52 294.973 309.577C294.973 308.682 294.69 307.965 294.126 307.428C293.561 306.891 292.786 306.612 291.801 306.592H288.124V312.49ZM307.989 313.048H301.47V318.378H309.042V320H299.487V304.959H308.939V306.592H301.47V311.426H307.989V313.048ZM322.11 306.592H317.275V320H315.302V306.592H310.478V304.959H322.11V306.592ZM332.843 313.048H326.324V318.378H333.896V320H324.341V304.959H333.793V306.592H326.324V311.426H332.843V313.048ZM332.12 303.637V303.74H330.539L328.99 301.984L327.45 303.74H325.87V303.616L328.411 300.807H329.568L332.12 303.637ZM347.925 320H345.931L338.359 308.41V320H336.365V304.959H338.359L345.952 316.601V304.959H347.925V320ZM362.511 315.228C362.325 316.818 361.736 318.048 360.744 318.915C359.76 319.776 358.448 320.207 356.809 320.207C355.032 320.207 353.606 319.57 352.532 318.296C351.464 317.021 350.931 315.317 350.931 313.182V311.736C350.931 310.338 351.179 309.109 351.675 308.048C352.177 306.988 352.887 306.175 353.802 305.61C354.718 305.039 355.779 304.753 356.984 304.753C358.582 304.753 359.863 305.2 360.827 306.096C361.791 306.984 362.352 308.217 362.511 309.794H360.517C360.345 308.596 359.97 307.728 359.391 307.191C358.819 306.654 358.017 306.385 356.984 306.385C355.717 306.385 354.722 306.853 353.999 307.79C353.283 308.726 352.924 310.059 352.924 311.788V313.244C352.924 314.876 353.265 316.174 353.947 317.139C354.629 318.103 355.583 318.585 356.809 318.585C357.91 318.585 358.754 318.337 359.339 317.841C359.932 317.338 360.324 316.467 360.517 315.228H362.511ZM367.356 320H365.372V304.959H367.356V320ZM379.483 316.075H373.182L371.767 320H369.721L375.465 304.959H377.2L382.954 320H380.919L379.483 316.075ZM373.781 314.442H378.894L376.332 307.408L373.781 314.442ZM398.728 313.048H392.21V318.378H399.782V320H390.226V304.959H399.678V306.592H392.21V311.426H398.728V313.048ZM404.812 304.959L409.73 317.232L414.647 304.959H417.219V320H415.236V314.143L415.421 307.821L410.484 320H408.965L404.038 307.852L404.234 314.143V320H402.251V304.959H404.812ZM246.741 341.054C246.741 340.469 246.535 340.021 246.122 339.711C245.708 339.394 244.965 339.064 243.89 338.719C242.816 338.368 241.966 338.024 241.339 337.686C239.631 336.763 238.777 335.52 238.777 333.957C238.777 333.145 239.004 332.421 239.459 331.788C239.92 331.147 240.578 330.648 241.432 330.29C242.293 329.932 243.257 329.753 244.324 329.753C245.399 329.753 246.356 329.949 247.196 330.342C248.036 330.727 248.687 331.275 249.148 331.984C249.617 332.693 249.851 333.499 249.851 334.401H246.752C246.752 333.713 246.535 333.179 246.101 332.8C245.667 332.415 245.058 332.222 244.273 332.222C243.515 332.222 242.926 332.384 242.506 332.707C242.086 333.024 241.876 333.444 241.876 333.967C241.876 334.456 242.12 334.866 242.609 335.197C243.105 335.527 243.832 335.837 244.789 336.126C246.552 336.657 247.836 337.314 248.642 338.1C249.448 338.885 249.851 339.863 249.851 341.033C249.851 342.335 249.358 343.358 248.374 344.101C247.389 344.838 246.063 345.207 244.397 345.207C243.24 345.207 242.186 344.997 241.236 344.576C240.285 344.149 239.559 343.568 239.056 342.831C238.56 342.094 238.312 341.24 238.312 340.269H241.421C241.421 341.929 242.413 342.758 244.397 342.758C245.133 342.758 245.708 342.61 246.122 342.314C246.535 342.011 246.741 341.591 246.741 341.054ZM264.313 337.821C264.313 339.301 264.051 340.599 263.528 341.715C263.004 342.831 262.254 343.692 261.276 344.298C260.305 344.904 259.189 345.207 257.929 345.207C256.682 345.207 255.57 344.907 254.592 344.308C253.614 343.709 252.857 342.855 252.32 341.746C251.783 340.63 251.511 339.349 251.504 337.903V337.159C251.504 335.679 251.769 334.377 252.299 333.255C252.836 332.125 253.59 331.261 254.561 330.662C255.539 330.056 256.655 329.753 257.908 329.753C259.162 329.753 260.274 330.056 261.245 330.662C262.223 331.261 262.977 332.125 263.507 333.255C264.044 334.377 264.313 335.675 264.313 337.149V337.821ZM261.173 337.139C261.173 335.562 260.89 334.363 260.326 333.544C259.761 332.724 258.955 332.315 257.908 332.315C256.868 332.315 256.066 332.721 255.501 333.534C254.937 334.339 254.651 335.524 254.644 337.087V337.821C254.644 339.356 254.926 340.548 255.491 341.395C256.056 342.242 256.868 342.665 257.929 342.665C258.969 342.665 259.768 342.259 260.326 341.446C260.883 340.627 261.166 339.436 261.173 337.872V337.139ZM275.614 338.854H269.664V345H266.565V329.959H276.358V332.47H269.664V336.354H275.614V338.854ZM289.684 332.47H285.076V345H281.977V332.47H277.432V329.959H289.684V332.47ZM303.34 340.661L305.365 329.959H308.453L305.117 345H301.997L299.549 334.938L297.101 345H293.981L290.644 329.959H293.733L295.768 340.641L298.247 329.959H300.871L303.34 340.661ZM318.174 341.901H312.74L311.707 345H308.412L314.011 329.959H316.883L322.513 345H319.217L318.174 341.901ZM313.577 339.391H317.337L315.447 333.761L313.577 339.391ZM329.485 339.494H327.017V345H323.918V329.959H329.506C331.283 329.959 332.653 330.355 333.618 331.147C334.582 331.939 335.064 333.058 335.064 334.505C335.064 335.531 334.84 336.388 334.392 337.077C333.952 337.759 333.28 338.303 332.378 338.709L335.632 344.855V345H332.306L329.485 339.494ZM327.017 336.984H329.516C330.295 336.984 330.897 336.788 331.324 336.395C331.751 335.996 331.965 335.448 331.965 334.753C331.965 334.043 331.762 333.485 331.355 333.079C330.956 332.673 330.339 332.47 329.506 332.47H327.017V336.984ZM346.478 338.482H340.528V342.51H347.511V345H337.429V329.959H347.491V332.47H340.528V336.054H346.478V338.482ZM357.697 342.51H364.277V345H354.598V329.959H357.697V342.51ZM369.36 345H366.261V329.959H369.36V345ZM377.799 341.271L381.208 329.959H384.658L379.421 345H376.188L370.971 329.959H374.411L377.799 341.271ZM391.652 339.494H389.183V345H386.084V329.959H391.673C393.449 329.959 394.82 330.355 395.784 331.147C396.748 331.939 397.23 333.058 397.23 334.505C397.23 335.531 397.006 336.388 396.559 337.077C396.118 337.759 395.447 338.303 394.544 338.709L397.798 344.855V345H394.472L391.652 339.494ZM389.183 336.984H391.683C392.461 336.984 393.064 336.788 393.491 336.395C393.918 335.996 394.131 335.448 394.131 334.753C394.131 334.043 393.928 333.485 393.522 333.079C393.122 332.673 392.506 332.47 391.673 332.47H389.183V336.984ZM408.645 338.482H402.695V342.51H409.678V345H399.596V329.959H409.657V332.47H402.695V336.054H408.645V338.482Z" fill="white"/>
<path d="M57.4734 322.716C56.9617 329.789 54.3431 335.357 49.6176 339.42C44.9222 343.484 38.7219 345.515 31.0167 345.515C22.589 345.515 15.9523 342.686 11.1064 337.028C6.29062 331.339 3.88273 323.543 3.88273 313.641V309.623C3.88273 303.302 4.99638 297.734 7.22368 292.918C9.45098 288.102 12.6264 284.415 16.7499 281.857C20.9035 279.268 25.7193 277.974 31.1972 277.974C38.7821 277.974 44.8921 280.006 49.5273 284.069C54.1625 288.132 56.8413 293.836 57.5637 301.18H44.0193C43.6882 296.936 42.4993 293.866 40.4526 291.97C38.436 290.044 35.3509 289.08 31.1972 289.08C26.6825 289.08 23.2964 290.706 21.039 293.956C18.8117 297.177 17.6679 302.188 17.6077 308.991V313.957C17.6077 321.06 18.6762 326.252 20.8132 329.533C22.9803 332.814 26.3815 334.454 31.0167 334.454C35.2004 334.454 38.3156 333.506 40.3623 331.61C42.4391 329.683 43.628 326.719 43.929 322.716H57.4734ZM117.972 322.716C117.46 329.789 114.841 335.357 110.116 339.42C105.421 343.484 99.2202 345.515 91.5149 345.515C83.0873 345.515 76.4506 342.686 71.6047 337.028C66.7889 331.339 64.381 323.543 64.381 313.641V309.623C64.381 303.302 65.4947 297.734 67.722 292.918C69.9493 288.102 73.1247 284.415 77.2482 281.857C81.4018 279.268 86.2176 277.974 91.6955 277.974C99.2804 277.974 105.39 280.006 110.026 284.069C114.661 288.132 117.34 293.836 118.062 301.18H104.518C104.186 296.936 102.998 293.866 100.951 291.97C98.9343 290.044 95.8491 289.08 91.6955 289.08C87.1807 289.08 83.7946 290.706 81.5372 293.956C79.3099 297.177 78.1662 302.188 78.106 308.991V313.957C78.106 321.06 79.1745 326.252 81.3115 329.533C83.4786 332.814 86.8797 334.454 91.5149 334.454C95.6986 334.454 98.8139 333.506 100.861 331.61C102.937 329.683 104.126 326.719 104.427 322.716H117.972ZM160.953 327.366C160.953 324.807 160.05 322.851 158.244 321.497C156.438 320.112 153.187 318.667 148.492 317.162C143.796 315.627 140.079 314.122 137.34 312.648C129.876 308.614 126.143 303.182 126.143 296.349C126.143 292.798 127.137 289.637 129.123 286.868C131.14 284.069 134.014 281.887 137.746 280.322C141.509 278.757 145.723 277.974 150.388 277.974C155.083 277.974 159.267 278.832 162.939 280.547C166.611 282.233 169.455 284.626 171.472 287.726C173.519 290.826 174.542 294.348 174.542 298.291H160.998C160.998 295.281 160.05 292.948 158.153 291.293C156.257 289.607 153.593 288.764 150.162 288.764C146.851 288.764 144.278 289.472 142.442 290.886C140.606 292.271 139.688 294.107 139.688 296.394C139.688 298.531 140.756 300.322 142.893 301.767C145.06 303.212 148.236 304.566 152.42 305.83C160.125 308.148 165.738 311.022 169.26 314.454C172.781 317.885 174.542 322.159 174.542 327.276C174.542 332.964 172.39 337.434 168.086 340.684C163.782 343.905 157.988 345.515 150.704 345.515C145.647 345.515 141.042 344.597 136.889 342.761C132.735 340.895 129.56 338.352 127.362 335.131C125.195 331.911 124.112 328.179 124.112 323.935H137.701C137.701 331.188 142.036 334.815 150.704 334.815C153.924 334.815 156.438 334.168 158.244 332.874C160.05 331.55 160.953 329.714 160.953 327.366ZM197.297 333.732H226.056V344.612H183.752V278.877H197.297V333.732Z" fill="white"/>
<line x1="19" y1="257.5" x2="402" y2="257.5" stroke="white" stroke-width="3"/>
<path d="M123.453 103.124C123.453 113.876 123.453 125.117 123.453 135.869C123.453 148.576 122.953 161.284 123.453 173.991C123.953 194.518 110.958 203.804 97.9626 207.225C83.9683 211.135 70.9731 210.158 57.978 203.316C46.9822 197.45 41.4844 188.165 41.4844 175.946C41.4844 151.509 41.4844 127.072 41.4844 103.124C41.4844 99.7028 41.4844 95.7929 42.484 92.3717C43.9834 86.9957 47.4823 85.5293 52.4801 87.9731C57.4784 90.4165 61.4766 94.8156 65.9749 98.7255C67.4746 100.192 68.4742 101.658 70.4731 102.635C70.4731 103.124 70.9731 103.613 70.9731 104.101C73.9721 107.034 77.4707 108.989 81.4689 110.455C94.464 114.854 106.96 112.899 118.455 106.057C120.454 105.079 121.953 104.101 123.453 103.124Z" fill="white"/>
<path d="M66.9744 213.579C63.4758 216.023 59.4772 217 54.979 217C39.4848 217 24.4906 205.759 20.992 191.097C20.4921 189.142 19.9924 187.675 19.9924 185.232C19.9924 169.592 19.9924 153.464 19.9924 137.825C19.9924 130.493 18.4929 123.651 14.9942 117.786C11.4956 112.41 6.49751 108.5 0 106.545C2.99885 104.59 5.99768 102.635 8.49674 100.68C16.4937 95.7929 19.4925 88.4618 19.9924 79.6646C19.9924 64.5137 20.4921 49.3627 19.9924 34.7004C19.9924 22.9707 24.9904 14.6622 33.987 7.81981C40.4845 3.42117 47.9818 0.977477 55.9786 0C56.9783 0 57.4779 0 58.9776 0C55.9786 1.46622 53.4797 2.93243 50.9803 4.8874C42.4837 12.2185 38.4852 21.5045 36.9858 31.768C36.486 34.7004 36.486 37.6329 36.486 40.0766C36.486 54.25 36.486 68.4236 36.486 82.108C36.486 85.5292 36.486 88.4618 35.4864 91.883C33.987 98.725 30.4883 102.635 23.9908 106.545V107.034C32.9874 111.921 35.9862 120.23 35.9862 129.516C35.9862 146.133 35.9862 163.239 35.9862 179.856C35.9862 194.518 46.9822 208.203 61.4765 212.113C63.4758 213.09 65.4747 213.09 66.9744 213.579Z" fill="white"/>
<path d="M105.459 1.4662C118.954 0.977456 137.447 10.2635 141.446 25.9031C141.945 27.8581 141.945 29.813 141.945 31.768C141.945 44.4754 141.945 57.6711 141.945 70.3782C141.945 76.732 142.945 82.5966 145.944 87.973C149.442 94.3263 154.441 99.2141 161.438 101.169C161.438 102.146 160.438 102.146 159.939 102.635C157.44 104.101 155.44 105.567 152.941 107.523C145.444 112.41 141.945 119.741 141.945 128.049C141.945 145.644 141.945 163.239 141.945 180.833C141.945 195.984 131.949 208.203 116.955 211.135C112.457 212.113 107.959 212.113 103.46 210.646C103.96 210.646 104.46 210.157 104.96 210.157C116.955 207.225 123.952 199.406 126.951 187.676C127.951 183.766 128.451 179.856 128.451 175.457C128.451 158.351 128.451 141.246 128.451 124.628C128.451 120.718 128.951 117.297 129.95 113.387C131.949 107.523 135.448 103.124 140.946 100.191C131.45 95.3041 128.451 86.9956 128.451 77.7093C128.451 62.5584 128.451 47.8962 128.451 32.7455C128.451 19.0608 122.453 9.28599 110.458 2.93241C108.958 3.42115 107.459 2.44367 105.459 1.4662Z" fill="white"/>
<path opacity="0.8" d="M123.452 103.124C121.453 103.613 120.453 105.079 118.954 106.056C107.458 112.899 94.9631 114.365 81.968 110.455C77.9698 108.989 74.4708 107.034 71.4722 104.101C70.9722 103.613 70.9722 103.613 70.9722 102.635C75.4704 99.7028 80.4687 97.259 85.4665 94.8151C92.4641 91.883 99.4613 89.4392 107.458 88.9505C116.455 88.4618 123.452 92.8604 123.452 103.124Z" fill="white"/>
<path d="M64.4751 59.6264C70.9726 59.6264 76.4705 64.5136 76.4705 70.3783C76.4705 76.2434 71.4723 81.1306 64.9747 81.1306C58.4771 81.1306 52.9792 76.2434 52.9792 70.3783C52.9792 64.5136 57.9775 59.6264 64.4751 59.6264Z" fill="white"/>
<path opacity="0.8" d="M103.96 54.25C98.4626 54.25 93.4647 49.8514 93.4647 44.9637C93.4647 40.0765 97.963 35.6779 103.461 35.6779C108.959 35.6779 113.957 40.0765 113.957 44.9637C113.957 49.8514 109.458 54.25 103.96 54.25Z" fill="white"/>
<path opacity="0.8" d="M75.9708 31.2792C71.9722 31.2792 68.4736 27.858 68.4736 23.4594C68.4736 19.0608 71.9722 15.6396 75.9708 15.6396C79.969 15.6396 83.4681 19.5495 83.4681 23.4594C83.4681 27.858 79.969 31.2792 75.9708 31.2792Z" fill="white"/>
<path d="M219.456 94.104C212.893 94.104 206.944 92.6933 201.608 89.872C196.333 86.9893 192.163 83.0333 189.096 78.004C186.091 72.9133 184.588 67.1787 184.588 60.8C184.588 54.4213 186.091 48.7173 189.096 43.688C192.163 38.5973 196.333 34.6413 201.608 31.82C206.944 28.9373 212.924 27.496 219.548 27.496C225.129 27.496 230.159 28.4773 234.636 30.44C239.175 32.4027 242.977 35.224 246.044 38.904L236.476 47.736C232.121 42.7067 226.724 40.192 220.284 40.192C216.297 40.192 212.74 41.0813 209.612 42.86C206.484 44.5773 204.031 47 202.252 50.128C200.535 53.256 199.676 56.8133 199.676 60.8C199.676 64.7867 200.535 68.344 202.252 71.472C204.031 74.6 206.484 77.0533 209.612 78.832C212.74 80.5493 216.297 81.408 220.284 81.408C226.724 81.408 232.121 78.8627 236.476 73.772L246.044 82.604C242.977 86.3453 239.175 89.1973 234.636 91.16C230.097 93.1227 225.037 94.104 219.456 94.104ZM272.342 93.736C267.128 93.736 262.436 92.6627 258.266 90.516C254.156 88.308 250.936 85.272 248.606 81.408C246.275 77.544 245.11 73.1587 245.11 68.252C245.11 63.3453 246.275 58.96 248.606 55.096C250.936 51.232 254.156 48.2267 258.266 46.08C262.436 43.872 267.128 42.768 272.342 42.768C277.555 42.768 282.216 43.872 286.326 46.08C290.435 48.2267 293.655 51.232 295.986 55.096C298.316 58.96 299.482 63.3453 299.482 68.252C299.482 73.1587 298.316 77.544 295.986 81.408C293.655 85.272 290.435 88.308 286.326 90.516C282.216 92.6627 277.555 93.736 272.342 93.736ZM272.342 81.96C276.022 81.96 279.027 80.7333 281.358 78.28C283.75 75.7653 284.946 72.4227 284.946 68.252C284.946 64.0813 283.75 60.7693 281.358 58.316C279.027 55.8013 276.022 54.544 272.342 54.544C268.662 54.544 265.626 55.8013 263.234 58.316C260.842 60.7693 259.646 64.0813 259.646 68.252C259.646 72.4227 260.842 75.7653 263.234 78.28C265.626 80.7333 268.662 81.96 272.342 81.96ZM354.891 24.736V93H341.183V87.296C337.625 91.5893 332.473 93.736 325.727 93.736C321.065 93.736 316.833 92.6933 313.031 90.608C309.289 88.5227 306.345 85.548 304.199 81.684C302.052 77.82 300.979 73.3427 300.979 68.252C300.979 63.1613 302.052 58.684 304.199 54.82C306.345 50.956 309.289 47.9813 313.031 45.896C316.833 43.8107 321.065 42.768 325.727 42.768C332.044 42.768 336.981 44.7613 340.539 48.748V24.736H354.891ZM328.211 81.96C331.829 81.96 334.835 80.7333 337.227 78.28C339.619 75.7653 340.815 72.4227 340.815 68.252C340.815 64.0813 339.619 60.7693 337.227 58.316C334.835 55.8013 331.829 54.544 328.211 54.544C324.531 54.544 321.495 55.8013 319.103 58.316C316.711 60.7693 315.515 64.0813 315.515 68.252C315.515 72.4227 316.711 75.7653 319.103 78.28C321.495 80.7333 324.531 81.96 328.211 81.96ZM412.058 68.436C412.058 68.62 411.966 69.908 411.782 72.3H374.338C375.013 75.3667 376.607 77.7893 379.122 79.568C381.637 81.3467 384.765 82.236 388.506 82.236C391.082 82.236 393.351 81.868 395.314 81.132C397.338 80.3347 399.209 79.108 400.926 77.452L408.562 85.732C403.901 91.068 397.093 93.736 388.138 93.736C382.557 93.736 377.619 92.6627 373.326 90.516C369.033 88.308 365.721 85.272 363.39 81.408C361.059 77.544 359.894 73.1587 359.894 68.252C359.894 63.4067 361.029 59.052 363.298 55.188C365.629 51.2627 368.787 48.2267 372.774 46.08C376.822 43.872 381.33 42.768 386.298 42.768C391.143 42.768 395.529 43.8107 399.454 45.896C403.379 47.9813 406.446 50.9867 408.654 54.912C410.923 58.776 412.058 63.284 412.058 68.436ZM386.39 53.624C383.139 53.624 380.41 54.544 378.202 56.384C375.994 58.224 374.645 60.7387 374.154 63.928H398.534C398.043 60.8 396.694 58.316 394.486 56.476C392.278 54.5747 389.579 53.624 386.39 53.624Z" fill="white"/>
<path d="M191.488 111.6H198.296V170.112H234.36V176H191.488V111.6ZM294.511 127.24C300.829 127.24 305.674 128.835 309.047 132.024C312.421 135.152 314.107 139.813 314.107 146.008V176H307.851V168.456C306.379 170.971 304.202 172.933 301.319 174.344C298.498 175.755 295.125 176.46 291.199 176.46C285.802 176.46 281.509 175.172 278.319 172.596C275.13 170.02 273.535 166.616 273.535 162.384C273.535 158.275 275.007 154.963 277.951 152.448C280.957 149.933 285.71 148.676 292.211 148.676H307.575V145.732C307.575 141.561 306.41 138.403 304.079 136.256C301.749 134.048 298.345 132.944 293.867 132.944C290.801 132.944 287.857 133.465 285.035 134.508C282.214 135.489 279.791 136.869 277.767 138.648L274.823 133.772C277.277 131.687 280.221 130.092 283.655 128.988C287.09 127.823 290.709 127.24 294.511 127.24ZM292.211 171.308C295.891 171.308 299.05 170.48 301.687 168.824C304.325 167.107 306.287 164.653 307.575 161.464V153.552H292.395C284.115 153.552 279.975 156.435 279.975 162.2C279.975 165.021 281.049 167.26 283.195 168.916C285.342 170.511 288.347 171.308 292.211 171.308ZM389.901 127.24C394.44 127.24 398.549 128.283 402.229 130.368C405.909 132.392 408.792 135.275 410.877 139.016C412.962 142.757 414.005 147.02 414.005 151.804C414.005 156.588 412.962 160.851 410.877 164.592C408.792 168.333 405.909 171.247 402.229 173.332C398.549 175.417 394.44 176.46 389.901 176.46C385.853 176.46 382.204 175.601 378.953 173.884C375.764 172.167 373.188 169.683 371.225 166.432V176H364.969V107.736H371.501V136.808C373.525 133.68 376.101 131.319 379.229 129.724C382.418 128.068 385.976 127.24 389.901 127.24ZM389.441 170.664C392.814 170.664 395.881 169.897 398.641 168.364C401.401 166.769 403.548 164.531 405.081 161.648C406.676 158.765 407.473 155.484 407.473 151.804C407.473 148.124 406.676 144.843 405.081 141.96C403.548 139.077 401.401 136.869 398.641 135.336C395.881 133.741 392.814 132.944 389.441 132.944C386.006 132.944 382.909 133.741 380.149 135.336C377.45 136.869 375.304 139.077 373.709 141.96C372.176 144.843 371.409 148.124 371.409 151.804C371.409 155.484 372.176 158.765 373.709 161.648C375.304 164.531 377.45 166.769 380.149 168.364C382.909 169.897 386.006 170.664 389.441 170.664Z" fill="white"/>
</svg>
