<svg width="147" height="147" viewBox="0 0 147 147" fill="none" xmlns="http://www.w3.org/2000/svg">
<g clip-path="url(#clip0)">
<path d="M114.741 51.1873C105.703 48.3825 98.6175 41.3179 95.7863 32.2874C86.0659 45.8636 70.5066 54.0539 53.8125 54.382L92.631 93.2162C92.9426 76.499 101.142 60.9139 114.741 51.1873Z" fill="#4AD5FF"/>
<path d="M39.7739 58.9337L102.926 122.086C104.403 120.609 105.233 118.606 105.233 116.517C105.233 114.428 104.403 112.425 102.926 110.948L36.0569 44.0657C32.9818 40.9914 27.9969 40.9914 24.9217 44.0657L28.6308 47.7748C29.3132 48.4339 29.5869 49.4099 29.3467 50.3277C29.1064 51.2454 28.3897 51.9622 27.4719 52.2024C26.5541 52.4426 25.5781 52.169 24.9191 51.4866L21.2021 47.7748L6.3367 62.6507C3.26244 65.7259 3.26244 70.7108 6.3367 73.7859L73.2086 140.658C74.6855 142.135 76.6887 142.965 78.7775 142.965C80.8663 142.965 82.8696 142.135 84.3465 140.658L99.2249 125.798L36.0622 62.6455C35.0674 61.6155 35.0816 59.9782 36.0942 58.9657C37.1067 57.9531 38.744 57.9389 39.7739 58.9337Z" fill="#4AD5FF"/>
<path d="M123.359 0.0129798C112.089 0.0218414 102.394 7.9902 100.204 19.0454C98.0126 30.1006 103.936 41.164 114.351 45.4703C124.766 49.7767 136.772 46.1267 143.029 36.7524C149.285 27.3781 148.048 14.89 140.075 6.9246C135.645 2.48874 129.629 0.00139201 123.359 0.0129798ZM136.358 14.3534C135.333 15.3781 133.672 15.3781 132.646 14.3534C127.513 9.23182 119.203 9.23182 114.069 14.3534C113.039 15.3482 111.402 15.3339 110.39 14.3214C109.377 13.3088 109.363 11.6716 110.358 10.6416C117.542 3.47202 129.174 3.47202 136.358 10.6416C137.383 11.6667 137.383 13.3283 136.358 14.3534Z" fill="#4AD5FF"/>
<path d="M60.2096 146.233C61.2458 147.228 62.8826 147.228 63.9187 146.233L67.6384 142.514L4.48611 79.3589L0.766489 83.0785C-0.258263 84.1036 -0.258263 85.7652 0.766489 86.7903L60.2096 146.233Z" fill="#4AD5FF"/>
</g>
<defs>
<clipPath id="clip0">
<rect width="147" height="147" fill="white"/>
</clipPath>
</defs>
</svg>
